<?xml version="1.0" encoding="utf-8"?>
<!-- Generator: Adobe Illustrator 17.1.0, SVG Export Plug-In . SVG Version: 6.00 Build 0)  -->
<!DOCTYPE svg PUBLIC "-//W3C//DTD SVG 1.1//EN" "http://www.w3.org/Graphics/SVG/1.1/DTD/svg11.dtd">
<svg version="1.1" id="Layer_1" xmlns="http://www.w3.org/2000/svg" xmlns:xlink="http://www.w3.org/1999/xlink" x="0px" y="0px" width="32" height="32"
	 viewBox="0 0 76 76" enable-background="new 0 0 76 76" xml:space="preserve">
<path fill="#ffffff" d="M57.1,47.2c0,2-1.6,3.6-3.6,3.6c-2,0-3.6-1.6-3.6-3.6c0-2,1.6-3.6,3.6-3.6C55.5,43.6,57.1,45.2,57.1,47.2"/>
<rect x="51.7" y="47.2" fill="#ffffff" width="3.6" height="9.9"/>
<path fill="#ffffff" d="M5.3,29.7c0.4-4.8,1.4-8,3.4-12c2-3.9,5-7.7,8.8-10.6c3.8-3,8.4-5.3,13.5-6.3c2.5-0.5,5.1-0.8,7.7-0.6
	l1.8,0.1l2,0.3c1.4,0.1,2.6,0.5,3.9,0.8c5.1,1.4,9.7,4.1,13.5,7.6c3.8,3.5,6.6,7.9,8.4,12.5c0.9,2.3,1.4,4.7,1.8,7
	c0.2,1.2,0.2,2.4,0.3,3.5c0.1,1.2,0,43.8,0,43.8h-7.1c0,0,0.1-42.7,0-43.7c-0.1-0.9,0-1.9-0.2-2.8c-0.2-1.9-0.6-3.8-1.3-5.7
	c-1.3-3.8-3.5-7.4-6.6-10.3c-3-2.9-6.8-5.3-10.9-6.5c-1-0.3-2.1-0.6-3.1-0.7l-1.5-0.3l-1.8-0.1c-2.1-0.2-3.7,0-5.8,0.4
	c-4.2,0.7-8.1,2.6-11.4,5c-3.3,2.4-5.9,5.5-7.7,8.9c-1.8,3.3-2.8,6.9-3.2,10c-0.4,3.1-0.4,14.2-0.4,14.2H5.2
	C5.2,44.1,5,34.5,5.3,29.7"/>
</svg>
